<svg xmlns="http://www.w3.org/2000/svg" xmlns:xlink="http://www.w3.org/1999/xlink" width="500" zoomAndPan="magnify" viewBox="0 0 375 374.999991" height="500" preserveAspectRatio="xMidYMid meet" version="1.0"><defs><g/><clipPath id="38d4f4f212"><path d="M 198 33 L 250.558594 33 L 250.558594 104 L 198 104 Z M 198 33 " clip-rule="nonzero"/></clipPath><clipPath id="e43a4e97d0"><rect x="0" width="251" y="0" height="137"/></clipPath><clipPath id="9860a2a7b3"><rect x="0" width="93" y="0" height="19"/></clipPath></defs><rect x="-37.5" width="450" fill="#ffffff" y="-37.499999" height="449.999989" fill-opacity="1"/><rect x="-37.5" width="450" fill="#532093" y="-37.499999" height="449.999989" fill-opacity="1"/><g transform="matrix(1, 0, 0, 1, 60, 119)"><g clip-path="url(#e43a4e97d0)"><g fill="#ef9937" fill-opacity="1"><g transform="translate(1.660457, 102.390565)"><g><path d="M 29.375 -39.703125 L 29.375 -7.484375 C 29.375 -5.847656 29.914062 -4.257812 31 -2.71875 C 32.082031 -1.175781 33.394531 -0.269531 34.9375 0 L 3.40625 0 C 4.9375 -0.269531 6.242188 -1.175781 7.328125 -2.71875 C 8.421875 -4.257812 8.96875 -5.847656 8.96875 -7.484375 L 8.96875 -55.890625 C 8.96875 -57.609375 8.421875 -59.210938 7.328125 -60.703125 C 6.242188 -62.203125 4.9375 -63.085938 3.40625 -63.359375 L 26.65625 -66.765625 L 27.0625 -66.765625 C 28.601562 -66.765625 29.375 -65.992188 29.375 -64.453125 Z M 65.125 -7.484375 C 65.125 -5.847656 65.664062 -4.257812 66.75 -2.71875 C 67.84375 -1.175781 69.160156 -0.269531 70.703125 0 L 39.15625 0 C 40.695312 -0.269531 42.007812 -1.175781 43.09375 -2.71875 C 44.1875 -4.257812 44.734375 -5.847656 44.734375 -7.484375 L 44.734375 -47.59375 C 44.734375 -49.3125 45.09375 -50.757812 45.8125 -51.9375 C 46.539062 -53.113281 47.359375 -54.175781 48.265625 -55.125 C 49.171875 -56.082031 49.984375 -57.035156 50.703125 -57.984375 C 51.429688 -58.941406 51.796875 -60.054688 51.796875 -61.328125 C 51.796875 -62.867188 50.9375 -64.203125 49.21875 -65.328125 C 47.5 -66.460938 45.28125 -67.03125 42.5625 -67.03125 C 39.65625 -67.03125 37.066406 -66.664062 34.796875 -65.9375 C 32.535156 -65.21875 30.953125 -64.628906 30.046875 -64.171875 C 33.222656 -65.710938 36.828125 -66.867188 40.859375 -67.640625 C 44.890625 -68.410156 48.71875 -68.390625 52.34375 -67.578125 C 55.96875 -66.765625 59.003906 -64.953125 61.453125 -62.140625 C 63.898438 -59.328125 65.125 -55.113281 65.125 -49.5 Z M 65.125 -7.484375 "/></g></g></g><g fill="#ef9937" fill-opacity="1"><g transform="translate(58.490262, 102.390565)"><g><path d="M 46.234375 -8.015625 C 48.859375 -8.015625 51.4375 -8.671875 53.96875 -9.984375 C 56.507812 -11.304688 58.734375 -13.144531 60.640625 -15.5 C 57.921875 -10.601562 54.25 -6.679688 49.625 -3.734375 C 45 -0.785156 39.925781 0.6875 34.40625 0.6875 C 30.144531 0.6875 26.128906 -0.21875 22.359375 -2.03125 C 18.597656 -3.851562 15.3125 -6.300781 12.5 -9.375 C 9.695312 -12.457031 7.476562 -16.082031 5.84375 -20.25 C 4.21875 -24.425781 3.40625 -28.914062 3.40625 -33.71875 C 3.40625 -38.4375 4.21875 -42.898438 5.84375 -47.109375 C 7.476562 -51.328125 9.695312 -54.976562 12.5 -58.0625 C 15.3125 -61.144531 18.597656 -63.59375 22.359375 -65.40625 C 26.128906 -67.21875 30.144531 -68.125 34.40625 -68.125 C 33.5 -67.9375 32.429688 -67.09375 31.203125 -65.59375 C 29.984375 -64.101562 28.828125 -62.132812 27.734375 -59.6875 C 26.648438 -57.238281 25.722656 -54.40625 24.953125 -51.1875 C 24.179688 -47.96875 23.796875 -44.546875 23.796875 -40.921875 C 23.796875 -36.390625 24.382812 -32.128906 25.5625 -28.140625 C 26.738281 -24.148438 28.347656 -20.660156 30.390625 -17.671875 C 32.429688 -14.679688 34.8125 -12.320312 37.53125 -10.59375 C 40.25 -8.875 43.148438 -8.015625 46.234375 -8.015625 Z M 44.59375 -44.875 C 44.59375 -47.59375 44.363281 -50.242188 43.90625 -52.828125 C 43.457031 -55.410156 42.867188 -57.742188 42.140625 -59.828125 C 41.421875 -61.910156 40.539062 -63.675781 39.5 -65.125 C 38.457031 -66.570312 37.347656 -67.570312 36.171875 -68.125 C 39.609375 -67.851562 42.820312 -66.988281 45.8125 -65.53125 C 48.8125 -64.082031 51.488281 -62.179688 53.84375 -59.828125 C 56.195312 -57.472656 58.164062 -54.707031 59.75 -51.53125 C 61.34375 -48.351562 62.5 -44.910156 63.21875 -41.203125 L 40.796875 -41.203125 C 41.785156 -41.203125 42.664062 -41.5625 43.4375 -42.28125 C 44.207031 -43.007812 44.59375 -43.875 44.59375 -44.875 Z M 44.59375 -44.875 "/></g></g></g><g fill="#ef9937" fill-opacity="1"><g transform="translate(107.842184, 102.390565)"><g><path d="M 60.234375 -51.671875 C 60.234375 -47.679688 59.914062 -43.960938 59.28125 -40.515625 C 59.644531 -42.785156 59.507812 -44.644531 58.875 -46.09375 C 58.238281 -47.539062 57.015625 -48.265625 55.203125 -48.265625 C 54.023438 -48.265625 53.023438 -48.101562 52.203125 -47.78125 C 51.390625 -47.46875 50.347656 -47.3125 49.078125 -47.3125 C 47.628906 -47.3125 46.25 -47.582031 44.9375 -48.125 C 43.625 -48.675781 42.488281 -49.425781 41.53125 -50.375 C 40.582031 -51.320312 39.835938 -52.429688 39.296875 -53.703125 C 38.753906 -54.972656 38.484375 -56.332031 38.484375 -57.78125 C 38.484375 -60.6875 39.523438 -63.179688 41.609375 -65.265625 C 43.691406 -67.347656 46.179688 -68.390625 49.078125 -68.390625 C 51.171875 -68.390625 53.054688 -67.84375 54.734375 -66.75 C 56.410156 -65.664062 57.65625 -64.21875 58.46875 -62.40625 C 59.28125 -60.78125 59.773438 -58.988281 59.953125 -57.03125 C 60.140625 -55.082031 60.234375 -53.296875 60.234375 -51.671875 Z M 22.296875 -6.390625 C 22.296875 -4.847656 23 -3.597656 24.40625 -2.640625 C 25.8125 -1.691406 27.738281 -1.3125 30.1875 -1.5 C 31.539062 -1.675781 33.007812 -1.988281 34.59375 -2.4375 C 36.1875 -2.894531 37.617188 -3.488281 38.890625 -4.21875 C 36.617188 -2.675781 34.304688 -1.472656 31.953125 -0.609375 C 29.597656 0.253906 27.195312 0.6875 24.75 0.6875 C 20.125 0.6875 16.335938 -0.921875 13.390625 -4.140625 C 10.441406 -7.359375 8.96875 -12.140625 8.96875 -18.484375 L 8.96875 -55.890625 C 8.96875 -57.609375 8.421875 -59.210938 7.328125 -60.703125 C 6.242188 -62.203125 4.9375 -63.085938 3.40625 -63.359375 L 26.65625 -66.765625 L 27.0625 -66.765625 C 28.601562 -66.765625 29.375 -65.992188 29.375 -64.453125 L 29.375 -20.125 C 29.375 -18.40625 29.007812 -16.953125 28.28125 -15.765625 C 27.550781 -14.585938 26.734375 -13.523438 25.828125 -12.578125 C 24.921875 -11.628906 24.101562 -10.675781 23.375 -9.71875 C 22.65625 -8.769531 22.296875 -7.660156 22.296875 -6.390625 Z M 22.296875 -6.390625 "/></g></g></g><g fill="#ef9937" fill-opacity="1"><g transform="translate(154.202955, 102.390565)"><g><path d="M 18.078125 -4.765625 C 18.265625 -3.492188 19.0625 -2.335938 20.46875 -1.296875 C 21.875 -0.253906 23.84375 0.359375 26.375 0.546875 C 23.207031 0.359375 20.238281 -0.226562 17.46875 -1.21875 C 14.707031 -2.21875 12.285156 -3.488281 10.203125 -5.03125 C 8.117188 -6.570312 6.460938 -8.359375 5.234375 -10.390625 C 4.015625 -12.429688 3.40625 -14.632812 3.40625 -17 C 3.40625 -19.894531 4.421875 -22.363281 6.453125 -24.40625 C 8.492188 -26.445312 10.96875 -27.46875 13.875 -27.46875 C 15.320312 -27.46875 16.703125 -27.191406 18.015625 -26.640625 C 19.328125 -26.097656 20.457031 -25.351562 21.40625 -24.40625 C 22.363281 -23.457031 23.113281 -22.347656 23.65625 -21.078125 C 24.195312 -19.804688 24.46875 -18.445312 24.46875 -17 C 24.46875 -15.363281 24.128906 -13.84375 23.453125 -12.4375 C 22.773438 -11.03125 21.847656 -9.832031 20.671875 -8.84375 C 19.941406 -8.207031 19.304688 -7.546875 18.765625 -6.859375 C 18.222656 -6.179688 17.992188 -5.484375 18.078125 -4.765625 Z M 54.65625 -18.359375 C 54.84375 -15.640625 54.273438 -13.125 52.953125 -10.8125 C 51.640625 -8.5 49.78125 -6.503906 47.375 -4.828125 C 44.976562 -3.148438 42.191406 -1.8125 39.015625 -0.8125 C 35.847656 0.1875 32.5 0.6875 28.96875 0.6875 C 31.40625 0.6875 33.484375 -0.304688 35.203125 -2.296875 C 36.929688 -4.296875 37.796875 -6.519531 37.796875 -8.96875 C 37.796875 -11.238281 36.957031 -13.4375 35.28125 -15.5625 C 33.601562 -17.695312 31.472656 -19.828125 28.890625 -21.953125 C 26.304688 -24.085938 23.539062 -26.285156 20.59375 -28.546875 C 17.65625 -30.816406 14.894531 -33.175781 12.3125 -35.625 C 9.726562 -38.070312 7.597656 -40.65625 5.921875 -43.375 C 4.242188 -46.09375 3.40625 -49.039062 3.40625 -52.21875 C 3.40625 -54.9375 4.128906 -57.289062 5.578125 -59.28125 C 7.023438 -61.28125 8.859375 -62.9375 11.078125 -64.25 C 13.296875 -65.5625 15.765625 -66.535156 18.484375 -67.171875 C 21.210938 -67.804688 23.84375 -68.125 26.375 -68.125 C 27.195312 -68.125 27.945312 -68.125 28.625 -68.125 C 29.300781 -68.125 30.003906 -68.03125 30.734375 -67.84375 C 28.285156 -68.207031 26.175781 -67.640625 24.40625 -66.140625 C 22.632812 -64.648438 21.75 -62.410156 21.75 -59.421875 C 21.75 -56.972656 22.519531 -54.707031 24.0625 -52.625 C 25.601562 -50.539062 27.550781 -48.5 29.90625 -46.5 C 32.269531 -44.507812 34.832031 -42.492188 37.59375 -40.453125 C 40.363281 -38.410156 42.96875 -36.28125 45.40625 -34.0625 C 47.851562 -31.84375 49.9375 -29.441406 51.65625 -26.859375 C 53.382812 -24.273438 54.382812 -21.441406 54.65625 -18.359375 Z M 50.171875 -44.1875 C 49.804688 -46.1875 49.238281 -48.429688 48.46875 -50.921875 C 47.695312 -53.410156 46.609375 -55.785156 45.203125 -58.046875 C 43.804688 -60.316406 42.039062 -62.335938 39.90625 -64.109375 C 37.78125 -65.878906 35.175781 -67.082031 32.09375 -67.71875 C 33.539062 -67.4375 34.875 -67.113281 36.09375 -66.75 C 37.320312 -66.394531 38.476562 -66.035156 39.5625 -65.671875 C 40.65625 -65.304688 41.722656 -65.03125 42.765625 -64.84375 C 43.804688 -64.664062 44.914062 -64.625 46.09375 -64.71875 C 46.820312 -64.8125 47.613281 -64.992188 48.46875 -65.265625 C 49.332031 -65.535156 49.898438 -65.851562 50.171875 -66.21875 Z M 50.171875 -44.1875 "/></g></g></g><g clip-path="url(#38d4f4f212)"><g fill="#ef9937" fill-opacity="1"><g transform="translate(195.125265, 102.390565)"><g><path d="M 18.078125 -4.765625 C 18.265625 -3.492188 19.0625 -2.335938 20.46875 -1.296875 C 21.875 -0.253906 23.84375 0.359375 26.375 0.546875 C 23.207031 0.359375 20.238281 -0.226562 17.46875 -1.21875 C 14.707031 -2.21875 12.285156 -3.488281 10.203125 -5.03125 C 8.117188 -6.570312 6.460938 -8.359375 5.234375 -10.390625 C 4.015625 -12.429688 3.40625 -14.632812 3.40625 -17 C 3.40625 -19.894531 4.421875 -22.363281 6.453125 -24.40625 C 8.492188 -26.445312 10.96875 -27.46875 13.875 -27.46875 C 15.320312 -27.46875 16.703125 -27.191406 18.015625 -26.640625 C 19.328125 -26.097656 20.457031 -25.351562 21.40625 -24.40625 C 22.363281 -23.457031 23.113281 -22.347656 23.65625 -21.078125 C 24.195312 -19.804688 24.46875 -18.445312 24.46875 -17 C 24.46875 -15.363281 24.128906 -13.84375 23.453125 -12.4375 C 22.773438 -11.03125 21.847656 -9.832031 20.671875 -8.84375 C 19.941406 -8.207031 19.304688 -7.546875 18.765625 -6.859375 C 18.222656 -6.179688 17.992188 -5.484375 18.078125 -4.765625 Z M 54.65625 -18.359375 C 54.84375 -15.640625 54.273438 -13.125 52.953125 -10.8125 C 51.640625 -8.5 49.78125 -6.503906 47.375 -4.828125 C 44.976562 -3.148438 42.191406 -1.8125 39.015625 -0.8125 C 35.847656 0.1875 32.5 0.6875 28.96875 0.6875 C 31.40625 0.6875 33.484375 -0.304688 35.203125 -2.296875 C 36.929688 -4.296875 37.796875 -6.519531 37.796875 -8.96875 C 37.796875 -11.238281 36.957031 -13.4375 35.28125 -15.5625 C 33.601562 -17.695312 31.472656 -19.828125 28.890625 -21.953125 C 26.304688 -24.085938 23.539062 -26.285156 20.59375 -28.546875 C 17.65625 -30.816406 14.894531 -33.175781 12.3125 -35.625 C 9.726562 -38.070312 7.597656 -40.65625 5.921875 -43.375 C 4.242188 -46.09375 3.40625 -49.039062 3.40625 -52.21875 C 3.40625 -54.9375 4.128906 -57.289062 5.578125 -59.28125 C 7.023438 -61.28125 8.859375 -62.9375 11.078125 -64.25 C 13.296875 -65.5625 15.765625 -66.535156 18.484375 -67.171875 C 21.210938 -67.804688 23.84375 -68.125 26.375 -68.125 C 27.195312 -68.125 27.945312 -68.125 28.625 -68.125 C 29.300781 -68.125 30.003906 -68.03125 30.734375 -67.84375 C 28.285156 -68.207031 26.175781 -67.640625 24.40625 -66.140625 C 22.632812 -64.648438 21.75 -62.410156 21.75 -59.421875 C 21.75 -56.972656 22.519531 -54.707031 24.0625 -52.625 C 25.601562 -50.539062 27.550781 -48.5 29.90625 -46.5 C 32.269531 -44.507812 34.832031 -42.492188 37.59375 -40.453125 C 40.363281 -38.410156 42.96875 -36.28125 45.40625 -34.0625 C 47.851562 -31.84375 49.9375 -29.441406 51.65625 -26.859375 C 53.382812 -24.273438 54.382812 -21.441406 54.65625 -18.359375 Z M 50.171875 -44.1875 C 49.804688 -46.1875 49.238281 -48.429688 48.46875 -50.921875 C 47.695312 -53.410156 46.609375 -55.785156 45.203125 -58.046875 C 43.804688 -60.316406 42.039062 -62.335938 39.90625 -64.109375 C 37.78125 -65.878906 35.175781 -67.082031 32.09375 -67.71875 C 33.539062 -67.4375 34.875 -67.113281 36.09375 -66.75 C 37.320312 -66.394531 38.476562 -66.035156 39.5625 -65.671875 C 40.65625 -65.304688 41.722656 -65.03125 42.765625 -64.84375 C 43.804688 -64.664062 44.914062 -64.625 46.09375 -64.71875 C 46.820312 -64.8125 47.613281 -64.992188 48.46875 -65.265625 C 49.332031 -65.535156 49.898438 -65.851562 50.171875 -66.21875 Z M 50.171875 -44.1875 "/></g></g></g></g></g></g><g transform="matrix(1, 0, 0, 1, 144, 134)"><g clip-path="url(#9860a2a7b3)"><g fill="#ef9937" fill-opacity="1"><g transform="translate(0.329541, 14.008717)"><g><path d="M 1.53125 0 L 0.296875 0 C 0.222656 0 0.164062 -0.03125 0.125 -0.09375 C 0.09375 -0.15625 0.09375 -0.21875 0.125 -0.28125 L 4.578125 -9.125 C 4.617188 -9.207031 4.65625 -9.269531 4.6875 -9.3125 C 4.71875 -9.363281 4.753906 -9.390625 4.796875 -9.390625 L 4.828125 -9.390625 C 4.890625 -9.390625 4.929688 -9.363281 4.953125 -9.3125 C 4.984375 -9.269531 5.023438 -9.207031 5.078125 -9.125 L 9.515625 -0.28125 C 9.546875 -0.21875 9.546875 -0.15625 9.515625 -0.09375 C 9.484375 -0.03125 9.421875 0 9.328125 0 L 8.125 0 C 8.019531 0 7.941406 -0.0195312 7.890625 -0.0625 C 7.847656 -0.101562 7.800781 -0.175781 7.75 -0.28125 L 6.890625 -2.078125 L 2.75 -2.078125 L 1.890625 -0.28125 C 1.828125 -0.175781 1.773438 -0.101562 1.734375 -0.0625 C 1.691406 -0.0195312 1.625 0 1.53125 0 Z M 4.8125 -6.703125 L 3.28125 -3.4375 L 6.359375 -3.4375 L 4.828125 -6.703125 Z M 4.8125 -6.703125 "/></g></g></g><g fill="#ef9937" fill-opacity="1"><g transform="translate(14.22388, 14.008717)"><g><path d="M 5.578125 -4.9375 L 8.78125 -4.9375 C 8.894531 -4.9375 8.96875 -4.914062 9 -4.875 C 9.03125 -4.84375 9.046875 -4.773438 9.046875 -4.671875 L 9.046875 -1.6875 C 9.046875 -1.582031 9.03125 -1.492188 9 -1.421875 C 8.96875 -1.347656 8.914062 -1.273438 8.84375 -1.203125 C 8.414062 -0.773438 7.878906 -0.4375 7.234375 -0.1875 C 6.597656 0.0507812 5.957031 0.171875 5.3125 0.171875 C 4.664062 0.171875 4.054688 0.046875 3.484375 -0.203125 C 2.910156 -0.453125 2.410156 -0.796875 1.984375 -1.234375 C 1.554688 -1.671875 1.21875 -2.175781 0.96875 -2.75 C 0.726562 -3.320312 0.609375 -3.9375 0.609375 -4.59375 C 0.609375 -5.25 0.726562 -5.863281 0.96875 -6.4375 C 1.21875 -7.019531 1.554688 -7.53125 1.984375 -7.96875 C 2.410156 -8.40625 2.910156 -8.75 3.484375 -9 C 4.054688 -9.25 4.664062 -9.375 5.3125 -9.375 C 5.945312 -9.375 6.570312 -9.25 7.1875 -9 C 7.800781 -8.757812 8.320312 -8.4375 8.75 -8.03125 C 8.832031 -7.945312 8.863281 -7.878906 8.84375 -7.828125 C 8.832031 -7.773438 8.789062 -7.707031 8.71875 -7.625 L 8.125 -6.96875 C 8.03125 -6.875 7.953125 -6.828125 7.890625 -6.828125 C 7.835938 -6.828125 7.78125 -6.863281 7.71875 -6.9375 C 7.414062 -7.238281 7.054688 -7.484375 6.640625 -7.671875 C 6.222656 -7.867188 5.78125 -7.96875 5.3125 -7.96875 C 4.851562 -7.96875 4.429688 -7.875 4.046875 -7.6875 C 3.671875 -7.5 3.34375 -7.242188 3.0625 -6.921875 C 2.789062 -6.609375 2.578125 -6.25 2.421875 -5.84375 C 2.273438 -5.445312 2.203125 -5.03125 2.203125 -4.59375 C 2.203125 -4.164062 2.273438 -3.75 2.421875 -3.34375 C 2.578125 -2.945312 2.789062 -2.585938 3.0625 -2.265625 C 3.34375 -1.941406 3.671875 -1.6875 4.046875 -1.5 C 4.429688 -1.3125 4.851562 -1.21875 5.3125 -1.21875 C 5.738281 -1.21875 6.132812 -1.285156 6.5 -1.421875 C 6.875 -1.554688 7.195312 -1.726562 7.46875 -1.9375 L 7.46875 -3.59375 L 5.578125 -3.59375 C 5.460938 -3.59375 5.382812 -3.609375 5.34375 -3.640625 C 5.3125 -3.671875 5.296875 -3.742188 5.296875 -3.859375 L 5.296875 -4.671875 C 5.296875 -4.773438 5.3125 -4.84375 5.34375 -4.875 C 5.382812 -4.914062 5.460938 -4.9375 5.578125 -4.9375 Z M 5.578125 -4.9375 "/></g></g></g><g fill="#ef9937" fill-opacity="1"><g transform="translate(28.341694, 14.008717)"><g><path d="M 7.21875 0 L 1.3125 0 C 1.195312 0 1.117188 -0.0195312 1.078125 -0.0625 C 1.046875 -0.101562 1.03125 -0.175781 1.03125 -0.28125 L 1.03125 -8.921875 C 1.03125 -9.109375 1.125 -9.203125 1.3125 -9.203125 L 7.21875 -9.203125 C 7.40625 -9.203125 7.5 -9.109375 7.5 -8.921875 L 7.5 -8.125 C 7.5 -7.925781 7.40625 -7.828125 7.21875 -7.828125 L 2.609375 -7.828125 L 2.609375 -5.3125 L 7.015625 -5.3125 C 7.128906 -5.3125 7.203125 -5.289062 7.234375 -5.25 C 7.273438 -5.21875 7.296875 -5.144531 7.296875 -5.03125 L 7.296875 -4.234375 C 7.296875 -4.128906 7.273438 -4.054688 7.234375 -4.015625 C 7.203125 -3.972656 7.128906 -3.953125 7.015625 -3.953125 L 2.609375 -3.953125 L 2.609375 -1.359375 L 7.21875 -1.359375 C 7.332031 -1.359375 7.40625 -1.335938 7.4375 -1.296875 C 7.476562 -1.265625 7.5 -1.191406 7.5 -1.078125 L 7.5 -0.28125 C 7.5 -0.175781 7.476562 -0.101562 7.4375 -0.0625 C 7.40625 -0.0195312 7.332031 0 7.21875 0 Z M 3.03125 -10.046875 L 2.4375 -10.046875 C 2.25 -10.046875 2.210938 -10.132812 2.328125 -10.3125 L 3.578125 -12.125 C 3.640625 -12.21875 3.695312 -12.285156 3.75 -12.328125 C 3.8125 -12.367188 3.882812 -12.394531 3.96875 -12.40625 L 4.59375 -12.40625 C 4.71875 -12.394531 4.84375 -12.300781 4.96875 -12.125 L 6.234375 -10.3125 C 6.347656 -10.132812 6.304688 -10.046875 6.109375 -10.046875 L 5.515625 -10.046875 C 5.335938 -10.046875 5.195312 -10.132812 5.09375 -10.3125 L 4.265625 -11.609375 L 3.453125 -10.3125 C 3.347656 -10.132812 3.207031 -10.046875 3.03125 -10.046875 Z M 3.03125 -10.046875 "/></g></g></g><g fill="#ef9937" fill-opacity="1"><g transform="translate(40.737488, 14.008717)"><g><path d="M 1.15625 -0.28125 L 1.15625 -9.25 C 1.15625 -9.332031 1.195312 -9.375 1.28125 -9.375 L 1.375 -9.375 C 1.445312 -9.375 1.519531 -9.335938 1.59375 -9.265625 L 7.4375 -3.09375 L 7.4375 -8.921875 C 7.4375 -9.023438 7.457031 -9.097656 7.5 -9.140625 C 7.539062 -9.179688 7.613281 -9.203125 7.71875 -9.203125 L 8.75 -9.203125 C 8.851562 -9.203125 8.925781 -9.179688 8.96875 -9.140625 C 9.007812 -9.097656 9.03125 -9.023438 9.03125 -8.921875 L 9.03125 0.046875 C 9.03125 0.128906 8.988281 0.171875 8.90625 0.171875 L 8.8125 0.171875 C 8.75 0.171875 8.675781 0.132812 8.59375 0.0625 L 2.75 -6.15625 L 2.75 -0.28125 C 2.75 -0.175781 2.726562 -0.101562 2.6875 -0.0625 C 2.644531 -0.0195312 2.570312 0 2.46875 0 L 1.453125 0 C 1.253906 0 1.15625 -0.09375 1.15625 -0.28125 Z M 1.15625 -0.28125 "/></g></g></g><g fill="#ef9937" fill-opacity="1"><g transform="translate(55.210223, 14.008717)"><g><path d="M 8.140625 -2.25 L 8.75 -1.59375 C 8.820312 -1.5 8.863281 -1.425781 8.875 -1.375 C 8.882812 -1.320312 8.847656 -1.257812 8.765625 -1.1875 C 8.347656 -0.769531 7.828125 -0.4375 7.203125 -0.1875 C 6.585938 0.0507812 5.960938 0.171875 5.328125 0.171875 C 4.671875 0.171875 4.054688 0.046875 3.484375 -0.203125 C 2.921875 -0.453125 2.421875 -0.796875 1.984375 -1.234375 C 1.554688 -1.671875 1.21875 -2.175781 0.96875 -2.75 C 0.726562 -3.320312 0.609375 -3.9375 0.609375 -4.59375 C 0.609375 -5.25 0.726562 -5.863281 0.96875 -6.4375 C 1.21875 -7.019531 1.554688 -7.53125 1.984375 -7.96875 C 2.421875 -8.40625 2.921875 -8.75 3.484375 -9 C 4.054688 -9.25 4.671875 -9.375 5.328125 -9.375 C 5.960938 -9.375 6.585938 -9.25 7.203125 -9 C 7.828125 -8.757812 8.347656 -8.429688 8.765625 -8.015625 C 8.835938 -7.941406 8.867188 -7.875 8.859375 -7.8125 C 8.847656 -7.757812 8.804688 -7.695312 8.734375 -7.625 L 8.140625 -6.96875 C 8.046875 -6.875 7.972656 -6.828125 7.921875 -6.828125 C 7.867188 -6.828125 7.804688 -6.863281 7.734375 -6.9375 C 7.453125 -7.238281 7.101562 -7.484375 6.6875 -7.671875 C 6.28125 -7.867188 5.828125 -7.96875 5.328125 -7.96875 C 4.867188 -7.96875 4.445312 -7.875 4.0625 -7.6875 C 3.6875 -7.5 3.359375 -7.242188 3.078125 -6.921875 C 2.796875 -6.609375 2.578125 -6.25 2.421875 -5.84375 C 2.273438 -5.445312 2.203125 -5.03125 2.203125 -4.59375 C 2.203125 -4.164062 2.273438 -3.75 2.421875 -3.34375 C 2.578125 -2.945312 2.796875 -2.585938 3.078125 -2.265625 C 3.359375 -1.941406 3.6875 -1.6875 4.0625 -1.5 C 4.445312 -1.3125 4.867188 -1.21875 5.328125 -1.21875 C 5.828125 -1.21875 6.28125 -1.3125 6.6875 -1.5 C 7.101562 -1.695312 7.457031 -1.953125 7.75 -2.265625 C 7.820312 -2.335938 7.882812 -2.375 7.9375 -2.375 C 7.988281 -2.375 8.054688 -2.332031 8.140625 -2.25 Z M 8.140625 -2.25 "/></g></g></g><g fill="#ef9937" fill-opacity="1"><g transform="translate(68.841672, 14.008717)"><g><path d="M 1.171875 -0.28125 L 1.171875 -8.921875 C 1.171875 -9.023438 1.1875 -9.097656 1.21875 -9.140625 C 1.257812 -9.179688 1.335938 -9.203125 1.453125 -9.203125 L 2.484375 -9.203125 C 2.597656 -9.203125 2.671875 -9.179688 2.703125 -9.140625 C 2.742188 -9.097656 2.765625 -9.023438 2.765625 -8.921875 L 2.765625 -0.28125 C 2.765625 -0.175781 2.742188 -0.101562 2.703125 -0.0625 C 2.660156 -0.0195312 2.585938 0 2.484375 0 L 1.453125 0 C 1.335938 0 1.257812 -0.0195312 1.21875 -0.0625 C 1.1875 -0.101562 1.171875 -0.175781 1.171875 -0.28125 Z M 1.171875 -0.28125 "/></g></g></g><g fill="#ef9937" fill-opacity="1"><g transform="translate(77.044185, 14.008717)"><g><path d="M 1.53125 0 L 0.296875 0 C 0.222656 0 0.164062 -0.03125 0.125 -0.09375 C 0.09375 -0.15625 0.09375 -0.21875 0.125 -0.28125 L 4.578125 -9.125 C 4.617188 -9.207031 4.65625 -9.269531 4.6875 -9.3125 C 4.71875 -9.363281 4.753906 -9.390625 4.796875 -9.390625 L 4.828125 -9.390625 C 4.890625 -9.390625 4.929688 -9.363281 4.953125 -9.3125 C 4.984375 -9.269531 5.023438 -9.207031 5.078125 -9.125 L 9.515625 -0.28125 C 9.546875 -0.21875 9.546875 -0.15625 9.515625 -0.09375 C 9.484375 -0.03125 9.421875 0 9.328125 0 L 8.125 0 C 8.019531 0 7.941406 -0.0195312 7.890625 -0.0625 C 7.847656 -0.101562 7.800781 -0.175781 7.75 -0.28125 L 6.890625 -2.078125 L 2.75 -2.078125 L 1.890625 -0.28125 C 1.828125 -0.175781 1.773438 -0.101562 1.734375 -0.0625 C 1.691406 -0.0195312 1.625 0 1.53125 0 Z M 4.8125 -6.703125 L 3.28125 -3.4375 L 6.359375 -3.4375 L 4.828125 -6.703125 Z M 4.8125 -6.703125 "/></g></g></g></g></g></svg>